<?xml version="1.0" encoding="utf-8"?>
<!-- Generator: Adobe Illustrator 23.0.3, SVG Export Plug-In . SVG Version: 6.00 Build 0)  -->
<svg version="1.1" id="Layer_1" xmlns="http://www.w3.org/2000/svg" xmlns:xlink="http://www.w3.org/1999/xlink" x="0px" y="0px"
	 width="287px" height="273.4px" viewBox="0 0 287 273.4" style="enable-background:new 0 0 287 273.4;" xml:space="preserve">
<style type="text/css">
	.st0{display:none;}
	.st1{display:inline;}
	.st2{enable-background:new    ;}
	.st3{fill:#808080;}
	.st4{fill:#848484;}
	.st5{clip-path:url(#SVGID_2_);enable-background:new    ;}
	.st6{fill:#858585;}
	.st7{fill:#878787;}
	.st8{fill:#8A8A8A;}
	.st9{clip-path:url(#SVGID_4_);enable-background:new    ;}
	.st10{fill:#828282;}
	.st11{clip-path:url(#SVGID_6_);enable-background:new    ;}
	.st12{fill:#B3B3B3;}
	.st13{clip-path:url(#SVGID_8_);}
	.st14{fill:#F01E22;}
	.st15{fill:#FAFAFA;}
	.st16{font-family:'Seravek-Bold';}
	.st17{font-size:32.9915px;}
	.st18{fill:none;}
</style>
<g id="badge" class="st0">
	<g class="st1">
		<g class="st2">
			<g>
				<polygon class="st3" points="67.8,51.6 67.8,64.5 63.1,60.2 63.1,47.3 				"/>
			</g>
			<g>
				<polygon class="st4" points="223.5,47.3 223.5,60.2 218.8,64.5 218.8,51.6 				"/>
			</g>
			<g>
				<polygon class="st4" points="218.8,51.6 218.8,64.5 143.3,134.1 143.3,121.2 				"/>
			</g>
			<g>
				<polygon class="st3" points="143.3,121.2 143.3,134.1 67.8,64.5 67.8,51.6 				"/>
			</g>
			<g class="st2">
				<g>
					<defs>
						<path id="SVGID_1_" d="M63.1,47.3v12.9c-18.8,19.3-30.3,45.3-30.3,73.9v-12.9C32.8,92.6,44.3,66.6,63.1,47.3z"/>
					</defs>
					<clipPath id="SVGID_2_">
						<use xlink:href="#SVGID_1_"  style="overflow:visible;"/>
					</clipPath>
					<g class="st5">
						<path class="st6" d="M63.1,47.3v12.9c-5.2,5.3-9.9,11.2-13.9,17.5V64.8C53.3,58.5,57.9,52.6,63.1,47.3"/>
						<path class="st7" d="M49.3,64.8v12.9c-4.8,7.6-8.7,15.8-11.5,24.5V89.3C40.5,80.6,44.4,72.4,49.3,64.8"/>
						<path class="st8" d="M37.8,89.3v12.9c-3.2,10.1-4.9,20.8-4.9,31.9v-12.9C32.8,110.1,34.5,99.4,37.8,89.3"/>
					</g>
				</g>
			</g>
			<g class="st2">
				<g>
					<defs>
						<path id="SVGID_3_" d="M253.8,121.2v12.9c0-28.6-11.5-54.6-30.3-73.9V47.3C242.3,66.6,253.8,92.6,253.8,121.2z"/>
					</defs>
					<clipPath id="SVGID_4_">
						<use xlink:href="#SVGID_3_"  style="overflow:visible;"/>
					</clipPath>
					<g class="st9">
						<path class="st10" d="M253.8,121.2v12.9c0-28.6-11.5-54.6-30.3-73.9V47.3C242.3,66.6,253.8,92.6,253.8,121.2"/>
					</g>
				</g>
			</g>
			<g class="st2">
				<g>
					<defs>
						<path id="SVGID_5_" d="M286.6,121.2v12.9c0,76.9-64.2,139.3-143.3,139.3S0,211.1,0,134.1v-12.9c0,76.9,64.2,139.3,143.3,139.3
							S286.6,198.1,286.6,121.2z"/>
					</defs>
					<clipPath id="SVGID_6_">
						<use xlink:href="#SVGID_5_"  style="overflow:visible;"/>
					</clipPath>
					<g class="st11">
						<path class="st8" d="M286.6,121.2v12.9c0,14.4-2.2,28.2-6.4,41.3v-12.9C284.4,149.4,286.6,135.6,286.6,121.2"/>
						<path class="st7" d="M280.2,162.5v12.9c-3.6,11.3-8.7,22-14.9,31.9v-12.9C271.6,184.5,276.6,173.8,280.2,162.5"/>
						<path class="st6" d="M265.3,194.4v12.9c-6.5,10.2-14.3,19.6-23.3,27.8v-12.9C250.9,213.9,258.8,204.6,265.3,194.4"/>
						<path class="st10" d="M242,222.2v12.9c-25.7,23.7-60.4,38.3-98.7,38.3C64.2,273.4,0,211.1,0,134.1v-12.9
							c0,76.9,64.2,139.3,143.3,139.3C181.6,260.5,216.3,245.9,242,222.2"/>
					</g>
				</g>
			</g>
			<g>
				<path class="st12" d="M213.9,0c12.4,6.8,23.6,15.4,33.4,25.4c24.4,25,39.3,58.7,39.3,95.8c0,76.9-64.2,139.3-143.3,139.3
					S0,198.1,0,121.2c0-37.1,15-70.9,39.3-95.8C49,15.4,60.3,6.9,72.7,0l21.7,24.9l5.8,6.7l43.2,49.6l43.2-49.6l5.8-6.7L213.9,0z
					 M143.3,228.6c61,0,110.5-48.1,110.5-107.4c0-28.6-11.5-54.6-30.3-73.9l-4.6,4.3l-75.5,69.6L67.8,51.6l-4.6-4.3
					c-18.8,19.3-30.3,45.3-30.3,73.9C32.8,180.5,82.3,228.6,143.3,228.6"/>
				<g class="st2">
					<g>
						<defs>
							<path id="SVGID_7_" d="M213.9,0c12.4,6.8,23.6,15.4,33.4,25.4c24.4,25,39.3,58.7,39.3,95.8c0,76.9-64.2,139.3-143.3,139.3
								S0,198.1,0,121.2c0-37.1,15-70.9,39.3-95.8C49,15.4,60.3,6.9,72.7,0l21.7,24.9l5.8,6.7l43.2,49.6l43.2-49.6l5.8-6.7L213.9,0z
								 M143.3,228.6c61,0,110.5-48.1,110.5-107.4c0-28.6-11.5-54.6-30.3-73.9l-4.6,4.3l-75.5,69.6L67.8,51.6l-4.6-4.3
								c-18.8,19.3-30.3,45.3-30.3,73.9C32.8,180.5,82.3,228.6,143.3,228.6"/>
						</defs>
						<clipPath id="SVGID_8_">
							<use xlink:href="#SVGID_7_"  style="overflow:visible;"/>
						</clipPath>
						<g class="st13">
							<g>
								<g>
									<g>
										<defs>
											<polyline id="SVGID_9_" points="285.9,135.4 283.7,149.3 280.2,162.6 275.4,175.4 269.3,187.6 262.1,199.1 253.9,209.8 
												244.6,219.7 234.5,228.7 223.4,236.7 211.6,243.7 199.1,249.5 185.9,254.2 172.2,257.6 158,259.7 143.3,260.5 
												128.7,259.7 114.4,257.6 100.7,254.2 87.5,249.5 75,243.7 63.2,236.7 52.2,228.7 42,219.7 32.7,209.8 24.5,199.1 
												17.3,187.6 11.3,175.4 6.4,162.6 2.9,149.3 0.7,135.4 0,121.2 0.7,107.4 2.7,94.1 6,81.1 10.5,68.7 16.2,56.9 22.9,45.7 
												30.6,35.1 39.3,25.4 43.1,21.7 46.9,18.2 50.9,14.8 55,11.5 59.3,8.4 63.6,5.4 68.1,2.6 72.7,0 72.7,0 94.4,24.9 
												100.1,31.6 143.3,81.2 186.5,31.6 192.3,24.9 213.9,0 218.5,2.6 223,5.4 227.4,8.4 231.6,11.5 235.7,14.8 239.7,18.2 
												243.6,21.7 247.3,25.4 256,35.1 263.7,45.7 270.4,56.9 276.1,68.7 280.6,81.1 283.9,94.1 285.9,107.4 286.6,121.2 
												285.9,135.4 											"/>
										</defs>
										<clipPath id="SVGID_10_">
											<use xlink:href="#SVGID_9_"  style="overflow:visible;"/>
										</clipPath>
										<g style="clip-path:url(#SVGID_10_);enable-background:new    ;">

										</g>
									</g>
								</g>
							</g>
						</g>
					</g>
				</g>
			</g>
		</g>
	</g>
</g>
<g id="marvel">
	<g>
		<rect id="red-rect" x="16.3" y="76.9" class="st14" width="255" height="97"/>
	</g>
	<g>
		<path class="st15" d="M23.7,167.4v-84h19.2l7,43.2l6.8-43.2h19.6v84.1H60.7v-40.6l-6.8,40.4h-8l-6.9-40v40.1H23.7z"/>
		<path class="st15" d="M110.1,83.4l12.7,84h-15.2l-1.7-13H94.2l-1.8,13h-15l12.6-84C90,83.4,110.1,83.4,110.1,83.4z M104.4,141
			l-4.3-35.3L96,141H104.4z"/>
		<path class="st15" d="M140.6,83.4c2.8,0,5.5,0.4,8,1.3s4.8,2.3,6.8,4.1c2,1.9,3.7,4.3,5,7.3s2.2,6.6,2.6,10.8
			c0.6,5.2,0.4,9.5-0.4,13c-0.8,3.5-1.9,6.3-3.1,8.3c-1.4,2.6-3,4.6-4.9,6l10,33.1h-15.4l-7.3-28.2l-3.4,0.6v27.6h-15.1l0.1-84
			L140.6,83.4L140.6,83.4z M138.5,124.9c1.8-0.2,3.4-0.6,4.6-1.4c1.2-0.8,2.2-1.7,3-2.9c0.8-1.2,1.4-2.6,1.7-4.1s0.5-3.1,0.5-4.7
			c0-1.7-0.2-3.3-0.5-5c-0.3-1.6-0.8-3.1-1.6-4.4s-1.7-2.4-2.9-3.2c-1.2-0.8-2.8-1.2-4.7-1.2v26.9H138.5z"/>
		<path class="st15" d="M176,83.4l6.7,50.6l7.1-50.6h15.1l-13.3,84h-17.8l-13.4-84C160.4,83.4,176,83.4,176,83.4z"/>
		<path class="st15" d="M205.9,167.4v-84h28.2v14.9h-12.7v19h12.8v15.6h-13.6v19h13.7v15.6h-28.4V167.4z"/>
		<path class="st15" d="M253.9,83.2v69h13v15.2H239v-84L253.9,83.2z"/>
	</g>
</g>
<text transform="matrix(0.9206 0 0 1 16.3066 209.4907)" class="st14 st16 st17">UNIVERSE MOVIES</text>
<text id="subtitle" transform="matrix(0.9206 0 0 1 16.3066 209.4907)" class="st18 st16 st17">UNIVERSE MOVIES</text>
</svg>
