<?xml version="1.0" encoding="utf-8"?>
<!-- Generator: Adobe Illustrator 23.0.3, SVG Export Plug-In . SVG Version: 6.00 Build 0)  -->
<svg version="1.1" id="timeline" xmlns="http://www.w3.org/2000/svg" xmlns:xlink="http://www.w3.org/1999/xlink" x="0px" y="0px"
	 width="2013px" height="82.3px" viewBox="0 0 2013 82.3" style="enable-background:new 0 0 2013 82.3;" xml:space="preserve">
<style type="text/css">
	.s0{fill:none;stroke:#000000;stroke-width:5;stroke-miterlimit:10;}
	.s1{fill:#333333;}
	.s2{fill:#FFFFFF;}
</style>
<g id="line">
	<line class="s0" x1="1972.5" y1="41.1" x2="40.5" y2="41.1"/>
</g>
<g id="nr1" class="bubble">
	<circle class="s1" cx="40.5" cy="40.5" r="40.5"/>
	<g>
		<path class="s2" d="M37.2,23.4h-0.1L29,27.8l-1.2-4.8L38,17.5h5.4v46.8h-6.1V23.4z"/>
		<path class="s2" d="M60.9,60.5c0-2.7,1.8-4.5,4.3-4.5c2.5,0,4.2,1.9,4.2,4.5c0,2.6-1.7,4.5-4.3,4.5
			C62.7,65.1,60.9,63.1,60.9,60.5z"/>
	</g>
</g>
<g id="nr2" class="bubble">
	<circle class="s1" cx="132.5" cy="40.5" r="40.5"/>
	<g>
		<path class="s2" d="M115.5,64.3v-3.9l5-4.8c12-11.4,17.4-17.4,17.4-24.5c0-4.8-2.3-9.1-9.3-9.1c-4.2,0-7.8,2.2-9.9,4l-2-4.5
			c3.2-2.7,7.8-4.8,13.2-4.8c10.1,0,14.3,6.9,14.3,13.6c0,8.6-6.3,15.6-16.1,25.1l-3.7,3.5V59h21v5.3H115.5z"/>
		<path class="s2" d="M152.9,60.5c0-2.7,1.8-4.5,4.3-4.5c2.5,0,4.2,1.9,4.2,4.5c0,2.6-1.7,4.5-4.3,4.5
			C154.7,65.1,152.9,63.1,152.9,60.5z"/>
	</g>
</g>
<g id="nr3" class="bubble">
	<circle class="s1" cx="224.5" cy="40.5" r="40.5"/>
	<g>
		<path class="s2" d="M209,57c1.8,1.2,6,3,10.4,3c8.1,0,10.7-5.2,10.6-9.1c-0.1-6.6-6-9.4-12.1-9.4h-3.5v-4.8h3.5
			c4.6,0,10.4-2.4,10.4-7.9c0-3.7-2.4-7.1-8.2-7.1c-3.7,0-7.3,1.7-9.4,3.1l-1.7-4.6c2.4-1.8,7.2-3.6,12.2-3.6
			c9.2,0,13.4,5.5,13.4,11.2c0,4.8-2.9,8.9-8.6,11V39c5.8,1.2,10.4,5.5,10.4,12c0,7.5-5.8,14-17.1,14c-5.3,0-9.9-1.7-12.2-3.2
			L209,57z"/>
		<path class="s2" d="M244.9,60.5c0-2.7,1.8-4.5,4.3-4.5c2.5,0,4.2,1.9,4.2,4.5c0,2.6-1.7,4.5-4.3,4.5
			C246.7,65.1,244.9,63.1,244.9,60.5z"/>
	</g>
</g>
<g id="nr4" class="bubble">
	<circle class="s1" cx="316.5" cy="40.5" r="40.5"/>
	<g>
		<path class="s2" d="M319.1,64.3V51.5h-21.7v-4.2l20.9-29.9h6.8v29.1h6.6v5h-6.6v12.7H319.1z M319.1,46.6V30.9
			c0-2.4,0.1-4.9,0.2-7.3h-0.2c-1.4,2.7-2.6,4.8-3.9,6.9l-11.4,15.9v0.1H319.1z"/>
		<path class="s2" d="M336.9,60.5c0-2.7,1.8-4.5,4.3-4.5c2.5,0,4.2,1.9,4.2,4.5c0,2.6-1.7,4.5-4.3,4.5
			C338.7,65.1,336.9,63.1,336.9,60.5z"/>
	</g>
</g>
<g id="nr5" class="bubble">
	<circle class="s1" cx="408.5" cy="40.5" r="40.5"/>
	<g>
		<path class="s2" d="M419.4,22.8h-17.9l-1.8,12c1.1-0.1,2.1-0.3,3.8-0.3c3.6,0,7.2,0.8,10.1,2.5c3.7,2.1,6.7,6.1,6.7,12
			c0,9.1-7.3,16-17.4,16c-5.1,0-9.4-1.4-11.7-2.9l1.6-4.8c1.9,1.2,5.8,2.6,10,2.6c6,0,11.1-3.9,11.1-10.2c-0.1-6-4.1-10.4-13.5-10.4
			c-2.7,0-4.8,0.3-6.5,0.5l3-22.5h22.4V22.8z"/>
		<path class="s2" d="M428.9,60.5c0-2.7,1.8-4.5,4.3-4.5c2.5,0,4.2,1.9,4.2,4.5c0,2.6-1.7,4.5-4.3,4.5
			C430.7,65.1,428.9,63.1,428.9,60.5z"/>
	</g>
</g>
<g id="nr6" class="bubble">
	<circle class="s1" cx="500.5" cy="40.5" r="40.5"/>
	<g>
		<path class="s2" d="M510.2,21.9c-1.3-0.1-3,0-4.8,0.3c-9.9,1.7-15.2,8.9-16.3,16.6h0.2c2.2-3,6.1-5.4,11.3-5.4
			c8.3,0,14.1,6,14.1,15.1c0,8.6-5.8,16.5-15.6,16.5c-10,0-16.6-7.8-16.6-19.9c0-9.2,3.3-16.5,7.9-21.1c3.9-3.8,9.1-6.2,15-6.9
			c1.9-0.3,3.5-0.4,4.6-0.4V21.9z M508.4,48.9c0-6.7-3.8-10.7-9.6-10.7c-3.8,0-7.3,2.4-9.1,5.8c-0.4,0.7-0.7,1.7-0.7,2.8
			c0.1,7.7,3.7,13.4,10.3,13.4C504.7,60.2,508.4,55.6,508.4,48.9z"/>
		<path class="s2" d="M520.9,60.5c0-2.7,1.8-4.5,4.3-4.5c2.5,0,4.2,1.9,4.2,4.5c0,2.6-1.7,4.5-4.3,4.5
			C522.7,65.1,520.9,63.1,520.9,60.5z"/>
	</g>
</g>
<g id="nr7" class="bubble">
	<circle class="s1" cx="592.5" cy="40.5" r="40.5"/>
	<g>
		<path class="s2" d="M605.9,17.5v4.2l-20.4,42.6h-6.6l20.3-41.4v-0.1h-22.9v-5.3H605.9z"/>
		<path class="s2" d="M612.9,60.5c0-2.7,1.8-4.5,4.3-4.5c2.5,0,4.2,1.9,4.2,4.5c0,2.6-1.7,4.5-4.3,4.5
			C614.7,65.1,612.9,63.1,612.9,60.5z"/>
	</g>
</g>
<g id="nr8" class="bubble">
	<circle class="s1" cx="684.5" cy="40.5" r="40.5"/>
	<g>
		<path class="s2" d="M666.9,52.4c0-5.9,3.5-10.1,9.3-12.5l-0.1-0.2c-5.2-2.4-7.4-6.5-7.4-10.5c0-7.4,6.3-12.5,14.5-12.5
			c9.1,0,13.6,5.7,13.6,11.5c0,4-1.9,8.2-7.7,10.9v0.2c5.8,2.3,9.4,6.4,9.4,12.1c0,8.1-7,13.6-15.9,13.6
			C672.8,65.1,666.9,59.2,666.9,52.4z M692.1,52.1c0-5.7-4-8.4-10.3-10.2c-5.5,1.6-8.4,5.2-8.4,9.6c-0.2,4.8,3.4,8.9,9.4,8.9
			C688.4,60.5,692.1,56.9,692.1,52.1z M674.7,28.7c0,4.7,3.5,7.2,8.9,8.6c4-1.4,7.1-4.2,7.1-8.5c0-3.7-2.2-7.6-7.9-7.6
			C677.6,21.2,674.7,24.7,674.7,28.7z"/>
		<path class="s2" d="M704.9,60.5c0-2.7,1.8-4.5,4.3-4.5c2.5,0,4.2,1.9,4.2,4.5c0,2.6-1.7,4.5-4.3,4.5
			C706.7,65.1,704.9,63.1,704.9,60.5z"/>
	</g>
</g>
<g id="nr9" class="bubble">
	<circle class="s1" cx="776.5" cy="40.5" r="40.5"/>
	<g>
		<path class="s2" d="M763.2,59.8c1.4,0.1,3,0,5.1-0.2c3.7-0.5,7.1-2,9.8-4.5c3.1-2.8,5.3-6.9,6.2-12.5H784c-2.6,3.2-6.3,5-11,5
			c-8.4,0-13.8-6.3-13.8-14.3c0-8.9,6.4-16.6,16-16.6c9.6,0,15.5,7.8,15.5,19.7c0,10.3-3.5,17.5-8.1,22c-3.6,3.5-8.6,5.7-13.6,6.3
			c-2.3,0.4-4.3,0.4-5.8,0.4V59.8z M765.5,32.9c0,5.8,3.5,9.9,9,9.9c4.2,0,7.6-2.1,9.2-4.9c0.4-0.6,0.6-1.3,0.6-2.3
			c0-8-3-14.1-9.6-14.1C769.3,21.5,765.5,26.2,765.5,32.9z"/>
		<path class="s2" d="M796.9,60.5c0-2.7,1.8-4.5,4.3-4.5c2.5,0,4.2,1.9,4.2,4.5c0,2.6-1.7,4.5-4.3,4.5
			C798.7,65.1,796.9,63.1,796.9,60.5z"/>
	</g>
</g>
<g id="nr10" class="bubble">
	<circle class="s1" cx="868.5" cy="41.1" r="40.5"/>
	<g>
		<path class="s2" d="M846.2,28.4h-0.1l-6.7,3.6l-1-4l8.4-4.5h4.4v38.4h-5V28.4z"/>
		<path class="s2" d="M890.7,42.3c0,13-4.8,20.2-13.3,20.2c-7.5,0-12.6-7-12.7-19.7c0-12.9,5.5-19.9,13.3-19.9
			C886.1,22.9,890.7,30.1,890.7,42.3z M869.8,42.9c0,10,3.1,15.6,7.8,15.6c5.3,0,7.8-6.2,7.8-16c0-9.4-2.4-15.6-7.8-15.6
			C873.1,26.9,869.8,32.5,869.8,42.9z"/>
		<path class="s2" d="M895.9,58.8c0-2.2,1.5-3.7,3.5-3.7s3.5,1.5,3.5,3.7c0,2.1-1.4,3.7-3.5,3.7C897.3,62.6,895.9,61,895.9,58.8z"
			/>
	</g>
</g>
<g id="nr11" class="bubble">
	<circle class="s1" cx="960.5" cy="41.1" r="40.5"/>
	<g>
		<path class="s2" d="M938.2,28.4h-0.1l-6.7,3.6l-1-4l8.4-4.5h4.4v38.4h-5V28.4z"/>
		<path class="s2" d="M968.4,28.4h-0.1l-6.7,3.6l-1-4l8.4-4.5h4.4v38.4h-5V28.4z"/>
		<path class="s2" d="M987.9,58.8c0-2.2,1.5-3.7,3.5-3.7s3.5,1.5,3.5,3.7c0,2.1-1.4,3.7-3.5,3.7C989.3,62.6,987.9,61,987.9,58.8z"
			/>
	</g>
</g>
<g id="nr12" class="bubble">
	<circle class="s1" cx="1052.5" cy="41.1" r="40.5"/>
	<g>
		<path class="s2" d="M1030.2,28.4h-0.1l-6.7,3.6l-1-4l8.4-4.5h4.4v38.4h-5V28.4z"/>
		<path class="s2" d="M1049.2,61.9v-3.2l4.1-4c9.8-9.3,14.2-14.3,14.3-20.1c0-3.9-1.9-7.5-7.6-7.5c-3.5,0-6.4,1.8-8.1,3.2l-1.7-3.7
			c2.7-2.2,6.4-3.9,10.9-3.9c8.3,0,11.7,5.7,11.7,11.2c0,7.1-5.1,12.8-13.2,20.6l-3.1,2.8v0.1h17.2v4.3H1049.2z"/>
		<path class="s2" d="M1079.9,58.8c0-2.2,1.5-3.7,3.5-3.7s3.5,1.5,3.5,3.7c0,2.1-1.4,3.7-3.5,3.7
			C1081.3,62.6,1079.9,61,1079.9,58.8z"/>
	</g>
</g>
<g id="nr13" class="bubble">
	<circle class="s1" cx="1144.5" cy="41.1" r="40.5"/>
	<g>
		<path class="s2" d="M1122.2,28.4h-0.1l-6.7,3.6l-1-4l8.4-4.5h4.4v38.4h-5V28.4z"/>
		<path class="s2" d="M1142.4,55.9c1.5,0.9,4.9,2.4,8.5,2.4c6.7,0,8.7-4.2,8.7-7.4c-0.1-5.4-4.9-7.7-9.9-7.7h-2.9v-3.9h2.9
			c3.8,0,8.6-1.9,8.6-6.5c0-3.1-1.9-5.8-6.7-5.8c-3.1,0-6,1.4-7.7,2.5l-1.4-3.8c2-1.5,5.9-3,10-3c7.6,0,11,4.5,11,9.1
			c0,4-2.4,7.3-7.1,9v0.1c4.7,0.9,8.6,4.5,8.6,9.9c0,6.1-4.8,11.5-14,11.5c-4.3,0-8.1-1.4-10-2.6L1142.4,55.9z"/>
		<path class="s2" d="M1171.9,58.8c0-2.2,1.5-3.7,3.5-3.7s3.5,1.5,3.5,3.7c0,2.1-1.4,3.7-3.5,3.7
			C1173.3,62.6,1171.9,61,1171.9,58.8z"/>
	</g>
</g>
<g id="nr14" class="bubble">
	<circle class="s1" cx="1236.5" cy="41.1" r="40.5"/>
	<g>
		<path class="s2" d="M1214.2,28.4h-0.1l-6.7,3.6l-1-4l8.4-4.5h4.4v38.4h-5V28.4z"/>
		<path class="s2" d="M1249.2,61.9V51.5h-17.8V48l17.1-24.5h5.6v23.8h5.4v4.1h-5.4v10.4H1249.2z M1249.2,47.4V34.6c0-2,0.1-4,0.2-6
			h-0.2c-1.2,2.2-2.1,3.9-3.2,5.7l-9.4,13v0.1H1249.2z"/>
		<path class="s2" d="M1263.9,58.8c0-2.2,1.5-3.7,3.5-3.7s3.5,1.5,3.5,3.7c0,2.1-1.4,3.7-3.5,3.7
			C1265.3,62.6,1263.9,61,1263.9,58.8z"/>
	</g>
</g>
<g id="nr15" class="bubble">
	<circle class="s1" cx="1328.5" cy="41.1" r="40.5"/>
	<g>
		<path class="s2" d="M1306.2,28.4h-0.1l-6.7,3.6l-1-4l8.4-4.5h4.4v38.4h-5V28.4z"/>
		<path class="s2" d="M1348.1,27.9h-14.6l-1.5,9.9c0.9-0.1,1.7-0.2,3.1-0.2c3,0,5.9,0.6,8.3,2.1c3,1.7,5.5,5,5.5,9.9
			c0,7.5-6,13.1-14.3,13.1c-4.2,0-7.7-1.2-9.6-2.4l1.3-4c1.6,0.9,4.7,2.1,8.2,2.1c4.9,0,9.1-3.2,9.1-8.3c-0.1-5-3.4-8.5-11-8.5
			c-2.2,0-3.9,0.2-5.3,0.4l2.5-18.4h18.4V27.9z"/>
		<path class="s2" d="M1355.9,58.8c0-2.2,1.5-3.7,3.5-3.7s3.5,1.5,3.5,3.7c0,2.1-1.4,3.7-3.5,3.7
			C1357.3,62.6,1355.9,61,1355.9,58.8z"/>
	</g>
</g>
<g id="nr16" class="bubble">
	<circle class="s1" cx="1420.5" cy="41.1" r="40.5"/>
	<g>
		<path class="s2" d="M1398.2,28.4h-0.1l-6.7,3.6l-1-4l8.4-4.5h4.4v38.4h-5V28.4z"/>
		<path class="s2" d="M1439.1,27.2c-1.1-0.1-2.4,0-3.9,0.2c-8.1,1.4-12.4,7.3-13.3,13.6h0.2c1.8-2.4,5-4.4,9.3-4.4
			c6.8,0,11.6,4.9,11.6,12.4c0,7-4.8,13.5-12.7,13.5c-8.2,0-13.6-6.4-13.6-16.3c0-7.6,2.7-13.5,6.5-17.3c3.2-3.1,7.4-5.1,12.3-5.7
			c1.5-0.2,2.8-0.3,3.8-0.3V27.2z M1437.6,49.3c0-5.5-3.1-8.8-7.9-8.8c-3.1,0-6,1.9-7.4,4.7c-0.4,0.6-0.6,1.4-0.6,2.3
			c0.1,6.3,3,11,8.4,11C1434.6,58.5,1437.6,54.8,1437.6,49.3z"/>
		<path class="s2" d="M1447.9,58.8c0-2.2,1.5-3.7,3.5-3.7s3.5,1.5,3.5,3.7c0,2.1-1.4,3.7-3.5,3.7
			C1449.3,62.6,1447.9,61,1447.9,58.8z"/>
	</g>
</g>
<g id="nr17" class="bubble">
	<circle class="s1" cx="1512.5" cy="41.1" r="40.5"/>
	<g>
		<path class="s2" d="M1490.2,28.4h-0.1l-6.7,3.6l-1-4l8.4-4.5h4.4v38.4h-5V28.4z"/>
		<path class="s2" d="M1534.1,23.5V27l-16.7,34.9h-5.4l16.6-33.9v-0.1h-18.8v-4.3H1534.1z"/>
		<path class="s2" d="M1539.9,58.8c0-2.2,1.5-3.7,3.5-3.7s3.5,1.5,3.5,3.7c0,2.1-1.4,3.7-3.5,3.7
			C1541.3,62.6,1539.9,61,1539.9,58.8z"/>
	</g>
</g>
<g id="nr18" class="bubble">
	<circle class="s1" cx="1604.5" cy="41.1" r="40.5"/>
	<g>
		<path class="s2" d="M1582.2,28.4h-0.1l-6.7,3.6l-1-4l8.4-4.5h4.4v38.4h-5V28.4z"/>
		<path class="s2" d="M1600.7,52.2c0-4.8,2.9-8.3,7.6-10.3l-0.1-0.2c-4.2-2-6.1-5.3-6.1-8.6c0-6.1,5.1-10.2,11.9-10.2
			c7.4,0,11.2,4.7,11.2,9.4c0,3.2-1.6,6.7-6.3,9v0.2c4.8,1.9,7.7,5.3,7.7,9.9c0,6.7-5.7,11.2-13,11.2
			C1605.5,62.6,1600.7,57.8,1600.7,52.2z M1621.4,51.9c0-4.7-3.2-6.9-8.4-8.4c-4.5,1.3-6.9,4.2-6.9,7.9c-0.2,3.9,2.8,7.3,7.7,7.3
			C1618.3,58.8,1621.4,55.9,1621.4,51.9z M1607.1,32.8c0,3.8,2.9,5.9,7.3,7.1c3.3-1.1,5.8-3.5,5.8-7c0-3.1-1.8-6.3-6.5-6.3
			C1609.4,26.6,1607.1,29.4,1607.1,32.8z"/>
		<path class="s2" d="M1631.9,58.8c0-2.2,1.5-3.7,3.5-3.7s3.5,1.5,3.5,3.7c0,2.1-1.4,3.7-3.5,3.7
			C1633.3,62.6,1631.9,61,1631.9,58.8z"/>
	</g>
</g>
<g id="nr19" class="bubble">
	<circle class="s1" cx="1696.5" cy="41.1" r="40.5"/>
	<g>
		<path class="s2" d="M1674.2,28.4h-0.1l-6.7,3.6l-1-4l8.4-4.5h4.4v38.4h-5V28.4z"/>
		<path class="s2" d="M1696.2,58.2c1.1,0.1,2.4,0,4.2-0.2c3-0.4,5.8-1.7,8-3.7c2.5-2.3,4.4-5.7,5.1-10.2h-0.2
			c-2.1,2.6-5.2,4.1-9,4.1c-6.9,0-11.3-5.2-11.3-11.7c0-7.3,5.3-13.6,13.1-13.6s12.7,6.4,12.7,16.2c0,8.4-2.8,14.3-6.6,18
			c-3,2.9-7,4.7-11.2,5.1c-1.9,0.3-3.5,0.4-4.8,0.3V58.2z M1698.1,36.2c0,4.8,2.9,8.1,7.4,8.1c3.5,0,6.2-1.7,7.6-4
			c0.3-0.5,0.5-1.1,0.5-1.9c0-6.5-2.4-11.6-7.8-11.6C1701.2,26.9,1698.1,30.7,1698.1,36.2z"/>
		<path class="s2" d="M1723.9,58.8c0-2.2,1.5-3.7,3.5-3.7s3.5,1.5,3.5,3.7c0,2.1-1.4,3.7-3.5,3.7
			C1725.3,62.6,1723.9,61,1723.9,58.8z"/>
	</g>
</g>
<g id="nr20" class="bubble">
	<circle class="s1" cx="1788.5" cy="41.1" r="40.5"/>
	<g>
		<path class="s2" d="M1754.9,61.9v-3.2l4.1-4c9.8-9.3,14.2-14.3,14.3-20.1c0-3.9-1.9-7.5-7.6-7.5c-3.5,0-6.4,1.8-8.1,3.2l-1.7-3.7
			c2.7-2.2,6.4-3.9,10.9-3.9c8.3,0,11.7,5.7,11.7,11.2c0,7.1-5.1,12.8-13.2,20.6l-3.1,2.8v0.1h17.2v4.3H1754.9z"/>
		<path class="s2" d="M1810.7,42.3c0,13-4.8,20.2-13.3,20.2c-7.5,0-12.6-7-12.7-19.7c0-12.9,5.5-19.9,13.3-19.9
			C1806.1,22.9,1810.7,30.1,1810.7,42.3z M1789.8,42.9c0,10,3.1,15.6,7.8,15.6c5.3,0,7.8-6.2,7.8-16c0-9.4-2.4-15.6-7.8-15.6
			C1793.1,26.9,1789.8,32.5,1789.8,42.9z"/>
		<path class="s2" d="M1815.9,58.8c0-2.2,1.5-3.7,3.5-3.7s3.5,1.5,3.5,3.7c0,2.1-1.4,3.7-3.5,3.7
			C1817.3,62.6,1815.9,61,1815.9,58.8z"/>
	</g>
</g>
<g id="nr21" class="bubble">
	<circle class="s1" cx="1880.5" cy="41.1" r="40.5"/>
	<g>
		<path class="s2" d="M1846.9,61.9v-3.2l4.1-4c9.8-9.3,14.2-14.3,14.3-20.1c0-3.9-1.9-7.5-7.6-7.5c-3.5,0-6.4,1.8-8.1,3.2l-1.7-3.7
			c2.7-2.2,6.4-3.9,10.9-3.9c8.3,0,11.7,5.7,11.7,11.2c0,7.1-5.1,12.8-13.2,20.6l-3.1,2.8v0.1h17.2v4.3H1846.9z"/>
		<path class="s2" d="M1888.4,28.4h-0.1l-6.7,3.6l-1-4l8.4-4.5h4.4v38.4h-5V28.4z"/>
		<path class="s2" d="M1907.9,58.8c0-2.2,1.5-3.7,3.5-3.7s3.5,1.5,3.5,3.7c0,2.1-1.4,3.7-3.5,3.7
			C1909.3,62.6,1907.9,61,1907.9,58.8z"/>
	</g>
</g>
<g id="nr22" class="bubble">
	<circle class="s1" cx="1972.5" cy="41.1" r="40.5"/>
	<g>
		<path class="s2" d="M1938.9,61.9v-3.2l4.1-4c9.8-9.3,14.2-14.3,14.3-20.1c0-3.9-1.9-7.5-7.6-7.5c-3.5,0-6.4,1.8-8.1,3.2l-1.7-3.7
			c2.7-2.2,6.4-3.9,10.9-3.9c8.3,0,11.7,5.7,11.7,11.2c0,7.1-5.1,12.8-13.2,20.6l-3.1,2.8v0.1h17.2v4.3H1938.9z"/>
		<path class="s2" d="M1969.2,61.9v-3.2l4.1-4c9.8-9.3,14.2-14.3,14.3-20.1c0-3.9-1.9-7.5-7.6-7.5c-3.5,0-6.4,1.8-8.1,3.2l-1.7-3.7
			c2.7-2.2,6.4-3.9,10.9-3.9c8.3,0,11.7,5.7,11.7,11.2c0,7.1-5.1,12.8-13.2,20.6l-3.1,2.8v0.1h17.2v4.3H1969.2z"/>
		<path class="s2" d="M1999.9,58.8c0-2.2,1.5-3.7,3.5-3.7s3.5,1.5,3.5,3.7c0,2.1-1.4,3.7-3.5,3.7
			C2001.3,62.6,1999.9,61,1999.9,58.8z"/>
	</g>
</g>
</svg>
